<svg width="42" height="41" viewBox="0 0 42 41" fill="none" xmlns="http://www.w3.org/2000/svg">
<path fill-rule="evenodd" clip-rule="evenodd" d="M36.4905 32.608C30.8522 39.4272 21.7733 42.8034 13.523 39.6059C4.92008 36.2717 -0.684635 27.6877 0.0686233 18.492C0.796648 9.60441 8.02058 2.98556 16.6929 0.909147C25.0993 -1.10361 34.0312 1.93242 38.6101 9.26399C43.186 16.5907 41.9948 25.9506 36.4905 32.608Z" fill="#F97561"/>
<path d="M27.4948 27.3754H13.9432C12.5574 27.3754 11.4336 26.2517 11.4336 24.8659V15.3295C11.4336 13.9438 12.5574 12.82 13.9432 12.82H27.4948C28.8806 12.82 30.0044 13.9438 30.0044 15.3295V24.8659C30.0044 26.2517 28.8806 27.3754 27.4948 27.3754Z" stroke="white" stroke-width="1.50574"/>
<path d="M11.4336 16.3334L20.719 21.3525L30.0044 16.3334" stroke="white" stroke-width="1.50574" stroke-linejoin="round"/>
</svg>
