<svg width="41" height="40" viewBox="0 0 41 40" fill="none" xmlns="http://www.w3.org/2000/svg">
<path fill-rule="evenodd" clip-rule="evenodd" d="M19.6813 0.000622463C28.3212 -0.0620466 36.5454 4.6101 39.332 12.7885C42.2377 21.3166 39.3346 30.897 31.9831 36.1054C24.878 41.1394 15.3926 39.8901 8.39604 34.7063C1.61397 29.6814 -1.7213 21.0944 0.888852 13.0674C3.49726 5.04574 11.2465 0.0618042 19.6813 0.000622463Z" fill="#F97561"/>
<path d="M15.7263 11.2129C14.7587 11.499 14.0006 12.2724 13.7475 13.2314C13.11 15.6501 13.8284 18.6463 15.8838 22.1365C17.9363 25.6219 20.2205 27.7294 22.6717 28.4004C23.6508 28.6684 24.7185 28.409 25.4564 27.7232L26.3178 26.9235C27.0204 26.2713 27.1233 25.1993 26.5571 24.4293L25.3124 22.7385C24.8262 22.0781 23.9667 21.7938 23.1718 22.0326L21.2178 22.6179C20.7082 22.7668 20.2655 22.381 20.098 22.236C19.6931 21.8843 19.249 21.299 18.7767 20.4979C17.764 18.7784 17.8377 18.1328 17.8617 17.9208C17.8875 17.694 17.9952 17.4834 18.166 17.3279L19.6185 16.0004C20.2262 15.4448 20.4052 14.5724 20.0645 13.8296L19.1882 11.9187C18.7901 11.0501 17.787 10.6032 16.8591 10.8774L15.7263 11.2129Z" stroke="white" stroke-width="1.35356"/>
</svg>
