<svg width="216" height="221" viewBox="0 0 216 221" fill="none" xmlns="http://www.w3.org/2000/svg">
<path d="M44.4924 69.6785C44.34 69.3902 44.5199 69.1424 44.6874 68.9938C45.7418 68.0528 46.6326 66.9561 47.6542 65.9799C48.191 65.4679 48.7184 64.9015 49.177 64.2912C49.5406 63.8101 50.0674 63.4927 50.4468 63.0126C50.8554 62.4961 51.3991 62.1068 51.8489 61.6182C52.2258 61.2061 52.7448 60.9374 53.1455 60.5268C53.727 59.9303 54.3628 59.3814 54.9995 58.8453C55.4103 58.5019 55.7794 58.0894 56.3011 57.9081C56.4388 57.8609 56.4806 57.746 56.5692 57.6704C56.9567 57.3462 57.3307 57.0101 57.7615 56.7314C58.6597 56.1459 59.4981 55.4728 60.4032 54.9037C61.0595 54.4893 61.6878 54.0384 62.331 53.6043C62.9508 53.1893 63.5781 52.7828 64.2123 52.3925C65.7014 51.4776 67.2311 50.6271 68.8124 49.8923C70.0527 49.3162 71.333 48.841 72.6346 48.4067C73.6885 48.0543 74.7364 47.6698 75.8214 47.4621C76.6913 47.2938 77.5434 47.0006 78.413 46.918C79.2317 46.8386 80.0531 46.7118 80.8665 46.6131C82.7461 46.3817 84.6307 46.2267 86.5219 46.1451C87.6338 46.096 88.7521 46.0711 89.8601 46.0075C91.1592 45.9316 92.456 46.0015 93.7533 45.9287C94.5142 45.8855 95.3072 45.9426 96.0811 45.9478C96.8295 45.9547 97.5748 46.066 98.323 46.0237C99.0712 45.9813 99.828 46.0585 100.568 46.0934C101.264 46.1272 102.016 46.001 102.694 46.3146C103.233 46.017 103.775 46.3334 104.313 46.342C104.844 46.35 105.395 46.3942 105.922 46.3672C106.465 46.341 107.019 46.3299 107.556 46.3208C108.647 46.3007 109.733 46.1755 110.818 46.1518C111.481 46.1376 112.09 45.9251 112.735 45.8559C113.958 45.7199 115.173 45.4438 116.36 45.0661C116.835 44.9154 117.323 44.8003 117.82 44.7968C118.198 44.7941 118.398 44.4682 118.749 44.4052C119.317 44.3076 119.869 44.1154 120.43 43.973C120.617 43.9255 120.786 43.8722 120.858 43.6767C121.041 43.7574 121.182 43.8182 121.311 43.8768C121.513 43.8254 121.295 43.7203 121.368 43.6231C121.593 43.5446 121.816 43.3994 122.101 43.4657C122.368 43.5262 122.486 43.2302 122.748 43.1936C123.316 43.1166 123.762 42.5564 124.411 42.7635C124.838 42.3925 125.404 42.3186 125.899 42.0929C126.145 41.9776 126.428 41.9121 126.715 42.0038C126.964 42.0822 127.054 41.5863 127.352 41.82C128.129 41.2542 129.088 41.3419 129.954 41.1798C131.34 40.925 132.719 40.5636 134.159 40.5405C134.88 40.5315 135.626 40.3081 136.359 40.2855C138.011 40.2292 139.658 40.0599 141.317 40.2039C142.002 40.2641 142.699 40.1679 143.383 40.236C144.833 40.3737 146.288 40.5102 147.724 40.763C147.993 40.8077 148.272 40.8054 148.506 41.0019C148.76 41.2139 149.046 40.9455 149.345 41.0079C149.699 41.0815 149.986 41.3208 150.384 41.3336C150.604 41.342 150.912 41.4953 151.165 41.5026C151.992 41.53 152.699 42.0326 153.525 42.0393C153.838 42.0438 154.107 42.2646 154.367 42.3944C155.255 42.8332 156.295 42.8449 157.121 43.4037C157.574 43.7101 158.069 43.8573 158.587 43.9105C158.752 43.9284 158.929 43.9406 159.01 44.0486C159.296 44.4307 159.765 44.4762 160.143 44.6703C160.548 44.8755 161.024 44.9373 161.42 45.1991C161.823 45.4644 162.228 45.8044 162.677 45.9044C163.481 46.0779 164.104 46.5564 164.782 46.9398C165.122 47.1315 165.575 47.1967 165.722 47.6783C165.8 47.9321 166.24 47.4953 166.336 47.9182C166.392 48.1675 166.587 48.2189 166.839 48.2293C167.07 48.24 167.104 48.656 167.355 48.6172C167.601 48.5796 167.938 48.6268 167.941 48.7634C167.947 49.1065 168.382 48.8914 168.367 49.1729C168.366 49.1966 168.395 49.2301 168.422 49.2412C169.215 49.5808 169.725 50.3126 170.503 50.6925C170.956 50.9132 171.365 51.2884 171.704 51.672C172.033 52.0376 172.423 52.3323 172.79 52.6304C173.434 53.145 173.891 53.8339 174.533 54.3358C174.707 54.4731 174.486 54.9628 174.97 54.8252C174.984 55.156 175.321 55.1588 175.476 55.3379C175.591 55.4701 175.622 55.6798 175.705 55.9037C176.119 56.0936 176.379 56.4852 176.689 56.8766C177.282 57.6277 177.84 58.4036 178.329 59.2135C179.001 60.3295 179.738 61.4335 180.044 62.7306C180.107 62.9961 180.391 62.9719 180.469 63.1971C180.937 64.5182 181.537 65.7885 181.768 67.2016C181.864 67.7928 182.18 68.3718 182.282 68.9744C182.488 70.1893 182.858 71.3681 182.89 72.6297C182.909 73.3764 183.048 74.1479 183.085 74.9132C183.166 76.5013 183.186 78.0875 182.886 79.6559C182.663 80.8276 182.463 82.0038 182.143 83.1602C182.031 83.5581 181.791 83.8974 181.725 84.2726C181.658 84.6589 181.519 84.9837 181.32 85.2938C181.162 85.5382 181.325 85.8367 181.11 86.0887C180.945 86.2835 180.753 86.5083 180.835 86.8623C180.873 87.0232 180.644 87.2506 180.532 87.4438C180.371 87.7229 180.248 88.0359 180.038 88.2708C179.867 88.462 180.111 88.8527 179.709 88.8984C179.849 89.2653 179.545 89.4866 179.413 89.7579C179.288 90.0169 179.126 90.2626 178.982 90.511C178.821 90.7901 178.66 91.0691 178.499 91.3482C178.354 91.5997 178.132 91.8354 178.082 92.1053C177.988 92.6232 177.616 92.9975 177.457 93.4861C177.28 94.026 176.919 94.5088 176.609 94.9963C176.338 95.4242 176.379 95.955 176.06 96.3721C175.752 96.7788 175.414 97.2297 175.309 97.7089C175.187 98.2521 174.76 98.6595 174.711 99.1548C174.652 99.7461 174.182 100.092 174.06 100.602C173.8 101.711 173.191 102.701 172.914 103.784C172.562 105.151 172.04 106.465 171.752 107.857C171.565 108.762 171.405 109.676 171.217 110.582C171.03 111.48 171.025 112.417 170.995 113.34C170.954 114.494 171.049 115.64 171.195 116.788C171.344 117.941 171.661 119.056 171.825 120.202C171.9 120.724 172.07 121.223 172.13 121.748C172.195 122.317 172.481 122.862 172.548 123.433C172.715 124.858 173.265 126.214 173.27 127.664C173.786 129.398 173.69 131.215 173.966 132.981C174.103 133.862 173.991 134.779 174.007 135.679C174.032 137.173 173.904 138.662 173.793 140.151C173.69 141.519 173.466 142.87 173.182 144.211C172.982 145.174 172.733 146.13 172.546 147.098C172.472 147.489 172.091 147.78 172.207 148.223C171.725 148.987 171.734 149.949 171.221 150.704C171.216 151.306 170.852 151.767 170.548 152.229C170.316 152.582 170.442 153.023 170.152 153.362C169.886 153.675 169.595 154.058 169.54 154.444C169.437 155.145 169.015 155.65 168.699 156.219C167.964 157.541 167.206 158.854 166.426 160.149C166.169 160.573 166.054 161.104 165.582 161.391C165.167 161.643 165.194 162.247 164.727 162.476C164.557 162.558 164.766 162.797 164.608 162.951C164.3 163.256 164.286 163.763 163.829 163.994C163.476 164.175 163.526 164.747 163.064 164.902C162.784 164.998 163.191 165.596 162.642 165.57C162.443 166.077 162.027 166.421 161.692 166.825C161.414 167.159 161.366 167.638 160.926 167.883C160.552 168.092 160.591 168.712 160.085 168.837C159.889 169.46 159.28 169.778 158.975 170.334C158.745 170.754 158.39 171.113 158.051 171.461C157.527 172.001 157.014 172.555 156.52 173.12C156.338 173.33 156.14 173.51 155.943 173.695C155.831 173.798 155.662 173.778 155.566 173.944C154.974 174.992 154.028 175.738 153.16 176.525C152.637 176.999 152.15 177.532 151.53 177.918C151.362 178.026 151.207 178.308 150.996 178.383C150.37 178.602 149.96 179.101 149.493 179.506C149.236 179.73 148.979 179.921 148.679 180.059C148.622 180.087 148.523 180.075 148.496 180.113C148.054 180.851 147.244 181.127 146.597 181.596C145.97 182.052 145.257 182.388 144.641 182.859C143.403 183.808 141.989 184.472 140.72 185.367C140.306 185.659 139.829 185.862 139.494 186.045C139.241 186.271 139.48 186.438 139.316 186.629C139.167 186.797 138.927 186.765 138.633 186.68C138.394 187.356 137.7 187.487 137.164 187.787C135.897 188.495 134.594 189.149 133.273 189.752C132.404 190.146 131.546 190.562 130.621 190.854C127.689 191.782 124.726 192.595 121.744 193.326C120.606 193.605 119.464 193.891 118.314 194.11C117.337 194.294 116.353 194.491 115.367 194.612C113.068 194.896 110.765 195.182 108.447 195.295C106.673 195.379 104.902 195.358 103.129 195.341C101.994 195.331 100.865 195.268 99.7325 195.162C97.9245 194.993 96.1268 194.785 94.3254 194.534C92.6341 194.298 91.0248 193.7 89.3248 193.557C88.4122 193.034 87.2952 193.142 86.3925 192.588C85.852 192.631 85.4002 192.309 84.931 192.145C84.4446 191.974 83.8954 191.927 83.4577 191.58C83.2594 191.421 82.922 191.545 82.68 191.348C82.4804 191.184 82.2404 191.033 81.9472 191.08C81.8971 190.7 81.5381 191.024 81.3616 190.82C81.182 190.614 80.8885 190.428 80.6212 190.388C79.9685 190.294 79.5009 189.758 78.9172 189.65C78.2818 189.532 77.8697 189.049 77.3015 188.921C76.6083 188.762 76.2452 188.123 75.6076 187.911C75.5532 187.892 75.5398 187.745 75.5073 187.652C75.3563 187.631 75.3397 187.801 75.1922 187.879C75.0653 187.667 74.9729 187.409 74.7971 187.246C74.588 187.056 74.3043 186.946 74.013 186.777C73.7776 186.866 73.5114 186.966 73.276 187.055C72.9878 186.783 72.6616 186.745 72.4658 186.44C72.3803 186.305 72.0059 186.252 71.7651 186.167C71.4467 186.052 71.3799 185.58 71.0978 185.601C70.7169 185.631 70.5 185.412 70.2393 185.261C67.8083 183.87 65.3825 182.469 62.9621 181.06C62.7015 180.909 62.3349 180.857 62.2743 180.466C61.7703 180.723 61.8161 180.091 61.5113 179.989C61.2315 179.893 61.0293 179.641 60.8093 179.42C60.4319 179.047 59.8833 178.857 59.4168 178.567C59.1063 178.375 58.7629 178.255 58.5555 177.878C58.3895 177.577 57.9652 177.484 57.6866 177.208C57.3495 176.879 57.0059 176.496 56.5731 176.255C56.2782 176.093 55.9925 175.936 55.7994 175.612C55.6538 175.368 55.1907 175.391 55.1481 174.99C54.5583 174.695 54.186 174.157 53.7166 173.73C52.5823 172.699 51.5402 171.587 50.5404 170.429C49.7023 169.458 48.8505 168.504 48.0225 167.523C47.756 167.206 47.4935 166.875 47.2517 166.543C46.375 165.342 45.4597 164.151 44.7263 162.864C44.0716 161.718 43.3616 160.596 42.755 159.416C42.4341 158.789 41.975 158.218 41.6189 157.595C40.7773 156.128 39.9767 154.639 39.2544 153.114C38.6177 151.773 37.9468 150.45 37.5786 148.998C37.481 148.615 37.2735 148.266 37.1518 147.889C37.014 147.462 36.9757 146.99 36.7807 146.591C36.5261 146.076 36.4376 145.514 36.2098 145.002C36.0336 144.606 36.3418 144.15 35.9232 143.778C35.6173 143.507 35.9357 142.934 35.5845 142.601C35.7439 142.006 35.2281 141.561 35.247 140.954C35.2663 140.368 34.9672 139.775 34.8108 139.181C34.6527 138.591 34.4261 138.007 34.3497 137.402C34.2084 136.294 33.7953 135.246 33.6324 134.155C33.4776 133.112 33.0956 132.103 33.1579 131.039C33.1731 130.786 32.9505 130.768 32.9126 130.578C32.8705 130.382 32.9898 130.218 32.9296 130.032C32.6856 129.286 32.5784 128.508 32.4597 127.737C32.2876 126.64 32.1476 125.537 31.9658 124.442C31.687 122.744 31.5751 121.039 31.4777 119.331C31.4128 118.218 31.3879 117.1 31.3485 115.986C31.3073 114.69 31.2533 113.396 31.2358 112.101C31.2253 111.114 31.2798 110.127 31.282 109.139C31.2828 108.359 31.2538 107.573 31.22 106.789C31.1769 105.709 31.1707 104.622 31.1356 103.543C31.0849 102.009 31.143 100.485 31.2614 98.9623C31.3201 98.1948 31.3758 97.4255 31.533 96.6576C31.6318 96.1749 31.7092 95.6512 31.7356 95.1594C31.7927 94.1538 32.1087 93.2241 32.3124 92.2622C32.3851 91.9239 32.5362 91.6268 32.625 91.3101C32.7062 91.0135 32.8133 90.736 32.9099 90.4483C33.1979 89.5882 33.6447 88.779 33.7867 87.8674C33.7966 87.8077 33.8162 87.7454 33.8525 87.6968C34.4618 86.8751 34.5991 85.8299 35.1765 84.9857C35.6911 84.236 35.8061 83.272 36.3799 82.5402C36.3549 81.9247 36.8657 81.5286 37.0306 81.0023C37.4726 79.5851 38.3664 78.4124 39.0634 77.1343C39.7569 75.8623 40.5086 74.624 41.2267 73.3662C41.737 72.4751 42.4567 71.7457 43.0975 70.9544C43.2362 70.785 43.4801 70.6601 43.5874 70.4317C43.7959 70.0492 44.0987 69.8151 44.4924 69.6785ZM116.104 46.983C115.922 46.5549 115.643 46.5778 115.35 46.6094C115.256 46.7719 115.161 46.9375 115.021 47.1798C114.501 46.9122 114.248 47.6125 113.668 47.5476C113.189 47.4919 112.677 47.7404 112.187 47.8537C112.158 48.0868 112.505 48.0949 112.429 48.3696C112.851 48.2823 113.262 48.0245 113.663 48.3707C113.753 48.2143 113.815 48.1069 113.891 47.9751C114.269 48.0786 114.619 47.9251 114.972 47.8305C115.311 47.7398 115.73 47.9569 115.982 47.5627C116.359 47.8297 116.608 47.356 116.975 47.3923C117.305 47.4232 117.656 47.2539 117.995 47.1632C118.353 47.0673 118.695 46.872 119.035 46.7861C119.374 46.7002 119.684 46.511 120.037 46.4814C120.402 46.4509 120.804 46.5322 121.106 46.2854C121.429 46.0176 121.775 46.013 122.164 46.0538C122.345 45.4428 122.794 45.6649 123.212 45.8121C123.175 45.6767 123.158 45.6138 123.14 45.5461C123.266 45.349 123.398 45.6377 123.536 45.5412C123.911 45.2798 124.298 44.9635 124.753 44.948C125.265 44.9327 125.67 44.6635 126.132 44.5421C127.948 44.0609 129.767 43.6149 131.603 43.2317C131.729 43.2059 131.871 43.1161 131.975 43.1477C132.591 43.3481 133.136 43.0413 133.714 42.9617C134.336 42.8754 134.954 42.6475 135.558 42.6282C136.471 42.5989 137.373 42.5595 138.222 42.3059C138.31 42.4095 138.246 42.5405 138.322 42.5435C138.813 42.4302 139.303 42.1613 139.669 42.2785C140.164 42.4335 140.486 42.1815 141.022 42.1598C140.179 41.784 140.179 41.784 139.517 41.9537C139.369 41.6021 138.866 41.8431 138.681 41.4545C138.435 41.7174 138.247 42.1566 137.78 41.8049C137.688 41.736 137.585 41.7456 137.512 41.7936C136.982 42.1743 136.347 42.0125 135.77 42.092C135.312 42.155 134.793 42.2682 134.425 41.9002C134.009 42.2164 133.609 42.3288 133.168 42.3071C133.126 42.1729 133.099 42.0792 133.065 41.9741C132.843 42.1321 132.628 42.2858 132.404 42.4469C132.111 42.2896 131.779 42.2903 131.446 42.2862C131.382 42.3966 131.318 42.507 131.255 42.6174C130.965 42.5033 130.697 42.6141 130.434 42.6999C130.192 42.7805 129.933 42.619 129.682 42.8704C129.503 43.0453 129.142 43.0411 128.863 43.1132C128.653 43.0451 128.486 42.8304 128.185 42.8489C128.303 42.9987 128.377 43.0904 128.541 43.2954C128.084 43.0522 127.879 43.4079 127.574 43.469C127.07 43.5704 126.578 43.728 126.08 43.8616C126.023 44.2786 125.633 43.7998 125.483 44.0939C125.311 44.4357 125.083 43.8461 124.871 44.0714C124.883 44.1562 124.897 44.238 124.884 44.1611C124.259 44.3313 123.678 44.4868 123.095 44.6406C122.942 44.7076 123.108 44.3701 122.882 44.4486C122.51 44.5484 123.073 44.9963 122.63 45.0633C122.5 45.0332 122.621 44.8168 122.424 44.8256C122.265 44.9097 122.294 45.1922 122.051 45.2157C122.027 45.0588 122.004 44.894 121.909 44.8804C121.679 44.8539 121.65 44.9552 121.604 45.035C121.404 45.3943 121.153 45.6663 120.692 45.58C120.487 45.9199 120.135 45.6798 119.865 45.7937C119.571 45.914 119.214 45.9085 118.942 46.0619C118.075 46.5636 117.076 46.6241 116.104 46.983ZM68.73 59.7234C69.5636 59.7386 70.1821 59.3188 70.8568 59.1277C71.4377 58.9642 72.0107 58.694 72.5801 58.4585C73.1966 58.2052 73.8468 58.0776 74.4506 57.8251C75.3438 57.4535 76.2279 57.0767 77.1628 56.8314C77.4095 56.7653 77.7064 56.7609 77.8928 56.615C78.4032 56.2268 79.0246 56.234 79.5894 56.0489C80.1542 55.8639 80.6587 55.5214 81.2634 55.4371C81.4234 55.415 81.5512 55.5051 81.7638 55.3989C82.6324 54.964 83.652 54.9189 84.5155 54.4361C84.8824 54.5866 85.1128 54.2371 85.4302 54.1832C85.7524 54.128 86.0634 54.0213 86.4068 53.9293C86.106 53.5226 85.8226 53.8292 85.5718 53.8316C84.4702 53.8416 83.3668 53.961 82.2884 54.193C80.1812 54.6487 78.1392 55.3384 76.1416 56.1355C75.6457 56.3358 75.1247 56.452 74.6437 56.6691C73.0082 57.4054 71.3898 58.176 69.7783 58.963C69.4204 59.1366 69.051 59.3445 68.73 59.7234ZM59.2885 58.9378C59.445 58.8932 59.5647 58.856 59.6826 58.8218C59.5813 58.5794 59.6965 58.3515 59.6817 58.1222C59.9701 57.8634 60.2044 58.5057 60.491 58.1723C60.508 57.9941 60.2093 58.0015 60.2805 57.7932C60.3979 57.4766 60.7272 57.4091 60.9463 57.2208C61.1025 57.2619 61.1943 57.4498 61.387 57.3852C61.3512 57.1356 61.3422 56.8892 61.6151 56.7564C62.1574 56.4971 62.5677 55.9775 63.2098 55.9066C63.4413 55.8808 63.5208 55.5874 63.7702 55.6087C63.8851 55.1476 64.3208 55.0516 64.6559 54.8607C65.7489 54.2282 66.83 53.5808 67.9587 53.014C69.4524 52.2612 70.9508 51.5071 72.5058 50.8961C73.578 50.4766 74.6235 49.9476 75.7626 49.7097C75.9424 49.6745 76.022 49.5651 75.9624 49.4203C71.4012 50.2951 67.4089 52.4225 63.5948 54.9636C63.5542 54.793 63.5422 54.6225 63.3262 54.6C63.035 54.7999 62.7573 55.0402 62.4403 55.1925C62.0468 55.3783 61.8893 55.6512 61.9921 56.0255C61.6393 56.247 61.3425 56.4355 61.0672 56.6077C60.9252 56.5421 60.7645 56.4166 60.7037 56.4511C60.2629 56.7118 59.7058 56.8481 59.6046 57.4766C59.2447 57.236 59.0884 57.6201 58.8331 57.6445C58.8082 58.0063 58.185 57.8959 58.2754 58.3979C58.341 58.7588 58.0833 58.9289 57.7081 58.8635C57.6912 58.8007 57.6743 58.7378 57.651 58.6507C57.5334 58.9181 57.1009 58.8033 57.0743 59.1396C57.1291 59.3634 57.3942 59.0176 57.4028 59.3497C56.9771 59.6764 56.5629 60.0751 56.0724 60.3439C55.7474 60.5243 55.6661 60.7431 55.5578 61.0936C55.9458 60.8678 56.1958 60.5338 56.625 60.6262C56.5757 60.4423 56.4939 60.2724 56.7746 60.1687C57.0293 60.0745 57.1966 60.1956 57.3956 60.2901C57.4666 60.3229 57.5178 60.2625 57.5009 60.1996C57.4223 60.1092 57.3467 60.0206 57.2327 59.8853C57.9004 59.4653 58.4859 58.961 59.2098 58.6634C59.2405 58.7588 59.2543 58.8199 59.2885 58.9378ZM91.3274 193.311C91.4262 193.515 91.5871 193.583 91.7842 193.603C92.614 193.681 93.4323 193.872 94.2486 194.016C95.7193 194.28 97.193 194.44 98.6761 194.577C101.204 194.809 103.741 194.933 106.283 194.9C107.367 194.884 108.456 194.854 109.536 194.775C110.693 194.69 111.844 194.517 113.005 194.426C114.117 194.341 115.203 194.096 116.304 193.959C117.229 193.844 118.121 193.524 119.062 193.495C119.25 193.489 119.437 193.405 119.62 193.351C119.802 193.297 120.011 193.282 120.151 193.175C120.022 192.958 119.9 192.985 119.774 193.027C119.203 193.209 118.593 193.273 118.019 193.326C116.634 193.451 115.278 193.739 113.901 193.901C113.167 193.989 112.423 194.152 111.7 194.172C110.071 194.217 108.45 194.376 106.82 194.417C104.627 194.467 102.445 194.352 100.256 194.34C99.7375 194.339 99.2539 194.15 98.7509 194.15C97.6437 194.148 96.5384 194.087 95.458 193.876C94.6378 193.717 93.801 193.729 92.9793 193.516C92.473 193.387 91.8995 193.269 91.3274 193.311ZM110.292 176.468C110.799 176.327 111.303 176.438 111.813 176.454C112.415 176.475 113.016 176.397 113.619 176.401C113.847 176.402 113.988 176.038 114.248 176.274C115.157 175.727 116.175 175.628 117.21 175.527C117.273 175.653 117.322 175.759 117.368 175.855C117.492 175.824 117.62 175.796 117.739 175.766C117.719 175.673 117.7 175.585 117.68 175.499C117.904 175.367 118.032 175.776 118.271 175.587C118.193 175.489 118.119 175.397 118.041 175.307C118.362 174.814 118.364 174.811 118.889 174.979C118.991 175.013 119.068 175.008 119.126 174.907C119.227 174.782 119.126 174.666 119.113 174.548C119.314 174.411 119.729 174.564 119.725 174.174C119.093 174.037 118.546 174.319 117.968 174.398C117.301 174.491 116.626 174.535 115.961 174.674C115.317 174.805 114.667 174.933 114.023 175.036C113.294 175.15 112.549 175.166 111.832 175.366C111.584 175.435 111.321 175.586 111.092 175.543C110.789 175.487 110.538 175.583 110.269 175.645C109.981 175.711 109.7 175.795 109.432 175.869C109.592 176.35 110.255 175.895 110.292 176.468ZM111.723 94.7267C112.109 94.8721 112.217 94.4803 112.514 94.4267C112.808 94.3762 113.097 94.2523 113.382 94.1188C114.469 93.6097 115.6 93.1953 116.718 92.7531C117.524 92.4335 118.35 92.1371 119.126 91.776C119.903 91.4149 120.727 91.163 121.481 90.764C122.196 90.3833 123.062 90.3068 123.662 89.6924C123.427 89.1849 123.129 89.0083 122.591 89.2093C121.819 89.4993 121.067 89.846 120.313 90.1878C119.788 90.4244 119.289 90.7292 118.751 90.9254C117.69 91.3186 116.708 91.872 115.714 92.3898C114.513 93.0174 113.312 93.645 112.105 94.2563C111.874 94.3725 111.763 94.5007 111.723 94.7267ZM38.5432 114.848C38.5571 114.591 38.6263 114.336 38.5596 114.126C38.5237 114.011 38.3856 113.96 38.4392 113.754C38.6559 112.918 38.8762 112.076 39.0003 111.224C39.0647 110.787 39.2519 110.363 39.1547 109.894C38.8906 108.638 38.6617 107.377 38.42 106.117C38.3986 105.998 38.3051 105.891 38.3848 105.753C38.4963 105.56 38.353 105.383 38.3064 105.209C38.2649 105.054 38.2961 104.852 38.0487 104.692C37.8752 106.154 37.8817 107.552 37.9076 108.945C37.9329 110.268 37.9771 111.594 38.0516 112.917C38.0854 113.517 38.0511 114.114 38.0374 114.712C38.0344 114.788 38.0899 114.869 38.1046 114.914C38.2597 114.893 38.3863 114.872 38.5432 114.848ZM87.216 155.106C87.5822 154.528 88.2465 154.298 88.7019 153.821C89.2606 153.236 89.8669 152.703 90.4391 152.13C90.9253 151.642 91.4368 151.181 91.8859 150.651C92.3499 150.109 92.9299 149.671 93.4276 149.149C93.9439 148.609 94.4428 148.042 95.0098 147.556C95.3277 147.281 95.6539 147.028 95.9346 146.712C96.2511 146.355 96.5778 145.987 96.9638 145.715C97.3563 145.439 97.4867 144.852 98.0807 144.815C98.224 144.807 98.2829 144.592 98.3174 144.44C98.3331 144.363 98.2978 144.212 98.3153 144.21C98.8592 144.082 99.0137 143.517 99.4666 143.215C99.2894 143.153 99.2151 143.069 99.0374 143.228C98.2207 143.963 97.3545 144.649 96.5453 145.392C96.2599 145.652 95.8879 145.851 95.7465 146.251C94.9702 146.682 94.4474 147.411 93.8718 148.04C93.2826 148.685 92.6417 149.292 92.0337 149.906C90.6863 151.262 89.4044 152.689 87.9582 153.948C87.8178 154.411 87.1791 154.504 87.216 155.106ZM69.682 173.216C69.5982 173.503 69.5469 173.67 69.4987 173.838C69.0416 173.603 68.987 174.328 68.4917 174.202C68.0219 173.967 67.5282 173.576 66.8865 173.483C66.5875 173.442 66.5612 173.537 66.5808 173.765C66.9879 173.988 67.3493 174.311 67.8134 174.243C67.9623 174.432 67.7095 174.572 67.8542 174.725C68.3725 175.024 68.8703 175.479 69.4378 175.594C70.0631 175.722 70.5138 176.089 71.0375 176.35C71.5827 176.624 72.096 176.953 72.6265 177.259C72.7645 177.339 72.9021 177.427 73.0454 177.497C73.0932 177.521 73.1622 177.507 73.2223 177.509C73.3015 177.379 73.4285 177.273 73.4152 177.097C72.8117 177.002 72.8394 176.99 72.6769 176.499C72.5893 176.24 72.8379 176.249 72.8626 176.128C72.9459 175.771 72.517 175.728 72.4412 175.484C72.3463 175.294 72.7454 175.226 72.5154 174.987C72.2466 175.184 72.2461 175.695 71.7502 175.605C71.4259 175.139 71.4259 175.139 70.8677 175.426C70.732 175.626 71.1747 175.624 71.0282 175.871C70.8387 175.724 70.488 175.779 70.6581 175.35C70.7088 175.22 70.4292 174.96 70.3551 174.848C70.1707 174.721 70.0491 174.925 69.965 174.766C69.8269 174.502 69.9484 174.249 69.9389 174.011C70.1172 173.922 70.3195 173.961 70.4321 173.829C70.2565 173.503 69.9682 173.84 69.8023 173.617C69.7785 173.538 69.7521 173.449 69.682 173.216ZM81.724 64.9439C81.2741 65.0644 80.8521 65.1438 80.4544 65.2945C80.0633 65.4407 79.6491 65.4428 79.2462 65.5741C78.7104 65.7514 78.2246 66.0474 77.6741 66.1794C76.5797 66.4389 75.5474 66.8815 74.5011 67.2914C72.8617 67.9355 71.3634 68.8451 69.8355 69.6925C69.481 69.8886 69.1597 70.1406 68.8258 70.3649C73.145 68.7124 77.2516 66.5856 81.6601 65.1892C81.6878 65.1765 81.6874 65.0781 81.724 64.9439ZM117.478 143.767C119.207 143.06 120.782 142.13 122.331 141.155C124.194 139.982 126.024 138.753 127.875 137.565C128.083 137.431 128.171 137.294 128.149 137.028C124.547 139.037 121.13 141.288 117.665 143.458C117.573 143.511 117.538 143.663 117.478 143.767ZM124.805 180.496C123.836 180.325 122.979 180.783 122.06 180.817C121.109 180.856 120.175 181.008 119.239 181.163C118.276 181.323 117.321 181.532 116.368 181.717C116.461 181.861 116.616 181.996 116.809 181.944C117.525 181.739 118.288 182.209 118.982 181.792C119.452 182.055 119.886 181.786 120.34 181.721C120.66 181.677 120.998 181.721 121.204 181.86C121.598 181.638 121.908 181.547 122.312 181.584C122.647 181.614 122.985 181.367 123.348 181.483C123.395 180.905 123.454 180.881 124.227 181.086C124.269 180.972 124.119 180.856 124.29 180.673C124.418 180.628 124.612 180.561 124.805 180.496ZM119.695 173.142C118.06 173.028 114.002 173.605 112.958 174.535C113.421 174.52 113.826 174.697 114.199 174.319C114.336 174.182 114.638 174.225 114.831 174.124C115.111 173.979 115.258 174.355 115.546 174.239C115.843 174.12 116.24 174.19 116.482 174.019C116.811 173.783 117.143 173.987 117.459 173.863C117.757 173.745 118.093 173.587 118.381 173.634C118.72 173.691 118.977 173.317 119.275 173.517C119.588 173.731 119.786 173.191 120.079 173.433C120.556 173.267 121.078 173.397 121.549 173.19C121.718 173.116 121.819 173.048 121.764 172.832C121.361 172.673 120.938 172.809 120.569 172.833C120.389 172.692 120.467 172.394 120.178 172.419C120.157 172.428 120.113 172.426 120.1 172.448C119.968 172.67 119.84 172.891 119.695 173.142ZM141.845 90.6918C142.08 90.8153 142.029 91.0883 142.352 91.1521C142.675 91.2159 142.948 91.1245 143.24 91.1293C143.651 91.1333 143.948 90.9005 144.14 90.5979C144.306 90.3381 144.469 90.5589 144.655 90.4987C144.986 89.9744 145.268 89.4218 144.952 88.6382C143.925 89.3697 142.68 89.6124 141.845 90.6918ZM167.492 145.194C167.813 144.652 167.985 144.219 168.149 143.75C168.422 142.98 168.572 142.183 168.812 141.413C169.176 140.237 169.266 139.018 169.468 137.818C169.535 137.427 169.624 137.004 169.606 136.581C169.589 136.171 169.591 135.75 169.674 135.337C169.683 135.293 169.707 135.139 169.495 135.159C169.445 135.331 169.351 135.473 169.335 135.725C169.275 136.672 169.047 137.599 168.906 138.536C168.756 139.541 168.527 140.525 168.272 141.498C168.136 142.017 168.013 142.555 167.889 143.068C167.738 143.705 167.443 144.344 167.492 145.194Z" fill="#FFCA0F"/>
</svg>
